<svg xmlns="http://www.w3.org/2000/svg" id="vt_white_on_transparent" data-name="Layer 1" viewBox="0 0 943 466"><defs><style>.ac6947b8-674e-4444-ae8f-bf797e485f12{fill:#861f41;}.bafd9157-6e32-4b83-8c99-eeb9f8cd1f8e{fill:#fff;}</style></defs><path class="bafd9157-6e32-4b83-8c99-eeb9f8cd1f8e" d="M531.16541,19.25284a158.67722,158.67722,0,0,0-139.55866,83.16947l-34.13754,63.09547-3.96836,7.33546-3.84478,7.10622v.00021L246.54147,370.54,78.21763,55.93011H153.081l60.28464,112.0826,31.63225,58.81145,32.65657-58.24935,63.15341-112.6447h54.59a182.22884,182.22884,0,0,1,45.56805-36.67726h-121.642L245.664,150.638,174.99646,19.25284H17l229.36061,428.6929,127.6733-235.97157,21.167-39.12093,3.96835-7.33546,24.55151-45.37513q2.00657-3.70915,4.24414-7.24077a122.48107,122.48107,0,0,1,95.117-56.68523q4.169-.28542,8.388-.28654H865.7l-33.74713,62.89757H677.29437L666.9455,138.27219,523.8465,407.13913H447.96423l125.501-233.08176,29.11261-54.06629H451.97556c-8.5958,13.59535-20.91266,36.67727-20.91266,36.67727H541.174L386.56216,443.81641H545.873L699.32092,155.505H853.89343L927,19.25284Z"/></svg>